<?xml version="1.0" encoding="UTF-8" ?>
<!DOCTYPE svg PUBLIC "-//W3C//DTD SVG 1.1//EN" "http://www.w3.org/Graphics/SVG/1.1/DTD/svg11.dtd">
<svg width="1600pt" height="249pt" viewBox="0 0 1600 249" version="1.1" xmlns="http://www.w3.org/2000/svg">
<g id="#ffffffff">
</g>
<g id="#1ab7eaff">
<path fill="#1ab7ea" opacity="1.00" d=" M 1060.61 0.00 L 1087.41 0.00 C 1094.49 1.10 1101.65 1.64 1108.74 2.75 C 1128.30 6.56 1147.68 13.21 1163.89 25.08 C 1187.44 41.01 1202.95 67.16 1208.15 94.88 C 1211.33 109.69 1210.77 124.94 1210.26 139.97 C 1208.34 160.52 1201.77 180.86 1189.91 197.87 C 1181.24 210.70 1169.34 221.12 1156.17 229.14 C 1134.80 241.83 1109.99 247.44 1085.40 249.00 L 1062.60 249.00 C 1050.56 247.78 1038.46 246.61 1026.79 243.28 C 1007.31 238.11 988.52 229.14 973.67 215.34 C 948.85 193.03 937.11 158.84 937.62 126.00 C 936.68 96.12 945.46 65.13 965.39 42.40 C 978.83 26.55 997.22 15.52 1016.72 8.77 C 1030.86 3.76 1045.75 1.60 1060.61 0.00 M 1062.33 52.33 C 1048.55 54.18 1034.94 60.07 1025.32 70.32 C 1016.69 79.09 1011.34 90.65 1008.61 102.55 C 1005.17 119.81 1005.34 138.12 1011.21 154.85 C 1015.32 166.98 1023.03 178.01 1033.52 185.45 C 1047.67 195.66 1065.90 198.88 1083.00 197.04 C 1095.92 195.82 1108.71 191.16 1118.61 182.62 C 1132.52 170.86 1139.88 152.88 1141.59 135.05 C 1141.97 123.83 1142.47 112.38 1139.48 101.43 C 1135.68 85.00 1125.95 69.35 1111.07 60.88 C 1096.60 52.08 1078.86 50.19 1062.33 52.33 Z" />
<path fill="#1ab7ea" opacity="1.00" d=" M 583.39 3.49 C 591.01 2.99 598.50 4.82 605.99 5.91 C 621.28 9.01 636.74 14.77 647.77 26.24 C 660.22 38.49 665.84 55.97 667.79 72.95 C 668.29 77.14 668.80 81.37 668.42 85.59 C 667.79 90.03 667.71 94.52 667.84 98.99 C 667.88 114.33 667.82 129.66 667.86 145.00 C 667.93 151.15 667.39 157.33 668.38 163.44 C 668.89 172.45 667.24 181.46 665.19 190.21 C 661.77 204.33 654.61 217.96 643.14 227.16 C 632.28 236.14 618.58 240.81 604.93 243.55 C 598.12 244.39 591.31 246.01 584.41 245.52 C 582.29 245.28 580.17 245.02 578.05 244.99 C 558.70 245.23 539.35 245.03 520.00 245.11 C 513.54 245.20 507.06 244.64 500.63 245.51 C 498.75 245.67 496.85 245.62 494.98 245.49 C 475.91 243.48 456.04 238.70 441.29 225.73 C 427.97 214.51 421.44 197.11 420.37 180.08 C 420.02 169.40 419.92 158.49 423.21 148.19 C 427.54 131.88 439.10 117.65 454.25 110.19 C 468.94 102.49 485.58 99.38 502.02 98.62 C 535.60 98.50 569.20 98.53 602.79 98.60 C 603.75 92.22 602.69 85.68 601.49 79.39 C 599.36 69.13 591.27 60.57 581.21 57.71 C 576.05 55.68 570.40 55.88 565.17 54.17 C 560.63 52.48 555.73 53.10 551.00 53.06 C 523.66 53.09 496.32 53.02 468.98 53.10 C 464.19 53.04 459.57 51.56 454.79 51.43 C 445.05 48.56 437.99 38.27 437.74 28.25 C 438.50 20.28 437.48 12.26 438.22 4.28 C 483.48 4.09 528.76 4.30 574.02 4.19 C 577.15 4.17 580.27 3.83 583.39 3.49 M 493.62 154.64 C 487.06 160.31 486.11 169.88 487.30 177.96 C 488.06 184.63 492.64 190.50 498.61 193.41 C 505.20 196.75 512.65 198.01 520.00 197.84 C 534.33 197.95 548.66 197.97 563.00 197.86 C 572.62 197.98 582.40 194.92 589.95 188.90 C 598.02 182.01 602.30 171.42 602.60 160.93 C 602.63 156.05 603.91 151.18 602.92 146.32 C 575.59 146.35 548.26 146.26 520.94 146.37 C 511.46 147.03 501.03 148.03 493.62 154.64 Z" />
<path fill="#1ab7ea" opacity="1.00" d=" M 799.92 4.81 C 805.09 4.07 810.31 3.08 815.55 3.50 C 822.31 4.66 829.18 4.10 836.00 4.19 C 857.33 4.22 878.66 4.19 900.00 4.21 C 906.53 4.26 913.08 3.90 919.61 4.47 C 920.69 12.10 919.20 19.84 920.44 27.46 C 920.96 36.15 915.52 44.84 907.97 48.96 C 902.55 51.55 896.54 53.91 890.44 53.42 C 884.65 52.50 878.81 53.20 873.00 53.08 C 863.66 52.98 854.32 53.17 844.99 52.91 C 842.17 52.79 839.37 53.18 836.72 54.10 C 834.28 54.86 831.75 55.26 829.23 55.60 C 815.21 57.89 801.19 63.81 791.86 74.87 C 782.78 85.05 778.78 98.75 777.46 112.07 C 775.71 128.14 776.70 144.94 783.02 159.99 C 787.99 172.03 797.53 182.17 809.49 187.45 C 818.86 192.22 829.40 193.35 839.63 195.05 C 845.96 196.62 852.53 196.16 859.00 196.25 C 870.08 196.17 881.17 196.48 892.23 195.68 C 897.72 195.77 903.15 197.45 907.97 200.04 C 914.73 203.75 919.69 210.99 920.17 218.73 C 918.82 227.38 920.75 236.22 918.82 244.80 C 912.90 245.61 906.93 245.14 901.00 245.16 C 877.33 245.19 853.66 245.17 830.00 245.18 C 825.20 245.09 820.40 245.13 815.62 245.60 C 809.40 245.96 803.29 244.58 797.18 243.67 C 776.77 240.14 756.68 231.88 741.52 217.47 C 728.70 205.57 719.87 189.82 714.82 173.17 C 709.04 154.72 707.77 135.21 708.37 115.98 C 709.32 88.94 716.30 61.00 733.69 39.68 C 749.87 19.64 774.77 8.26 799.92 4.81 Z" />
<path fill="#1ab7ea" opacity="1.00" d=" M 1492.50 11.56 C 1500.32 5.94 1510.05 3.61 1519.56 3.30 C 1522.00 3.80 1524.46 4.31 1526.99 4.27 C 1551.32 3.98 1575.67 4.43 1600.00 4.03 L 1600.00 245.08 C 1589.67 245.13 1579.34 245.07 1569.01 245.13 C 1564.57 245.17 1560.17 244.06 1555.74 244.65 C 1544.31 243.05 1535.34 232.50 1535.37 220.99 C 1535.18 173.33 1535.35 125.66 1535.28 78.00 C 1535.06 67.87 1535.82 57.70 1534.78 47.61 C 1531.53 51.99 1530.39 57.43 1528.34 62.39 C 1520.60 82.94 1512.92 103.51 1505.08 124.03 C 1489.98 164.69 1474.23 205.11 1459.36 245.86 C 1459.06 244.85 1458.43 244.42 1457.49 244.59 C 1448.02 245.62 1438.49 244.97 1429.00 245.14 C 1417.31 245.05 1405.62 245.29 1393.94 245.08 C 1390.55 245.42 1388.62 242.31 1386.66 240.12 C 1381.77 228.24 1377.54 216.10 1372.90 204.13 C 1355.91 158.83 1338.78 113.58 1321.74 68.30 C 1318.85 61.19 1316.73 53.75 1313.27 46.88 C 1312.25 56.55 1312.98 66.30 1312.76 76.00 C 1312.75 121.67 1312.79 167.33 1312.74 213.00 C 1312.78 219.58 1312.80 226.52 1309.45 232.42 C 1305.34 240.63 1296.16 244.87 1287.37 245.67 C 1276.65 244.23 1265.80 246.03 1255.06 244.92 C 1254.28 232.63 1254.95 220.30 1254.73 208.00 C 1254.73 151.33 1254.73 94.67 1254.73 38.00 C 1254.90 26.78 1254.32 15.54 1255.21 4.35 C 1276.47 4.28 1297.74 4.37 1319.00 4.32 C 1325.80 4.23 1332.68 4.89 1339.41 3.48 C 1346.21 3.82 1352.93 5.77 1358.86 9.14 C 1365.52 13.06 1370.52 19.37 1373.58 26.42 C 1377.05 34.28 1379.44 42.56 1382.37 50.64 C 1394.16 84.48 1406.11 118.27 1417.88 152.12 C 1421.09 160.45 1423.30 169.18 1427.16 177.24 C 1429.79 172.77 1431.02 167.69 1432.79 162.85 C 1448.23 118.91 1463.51 74.90 1478.93 30.95 C 1481.66 23.47 1486.04 16.37 1492.50 11.56 Z" />
<path fill="#1ab7ea" opacity="1.00" d=" M 2.37 4.26 C 6.58 4.08 10.79 4.06 15.00 4.18 C 30.74 4.43 46.50 3.92 62.23 4.62 C 70.68 6.41 76.87 13.48 79.66 21.36 C 93.62 57.75 107.54 94.15 121.43 130.56 C 127.97 146.73 133.61 163.25 140.31 179.35 C 143.07 176.59 143.70 172.58 145.22 169.13 C 164.99 119.55 184.52 69.87 204.34 20.32 C 207.76 11.32 215.99 4.62 225.61 3.55 C 242.30 5.24 259.14 3.19 275.85 4.68 C 252.13 60.94 228.04 117.05 204.22 173.27 C 194.50 195.67 185.32 218.32 175.35 240.61 C 173.92 241.82 172.61 243.17 171.54 244.72 C 166.39 245.40 161.18 245.08 156.00 245.13 C 141.00 245.17 126.00 245.10 111.00 245.16 C 107.16 245.18 103.33 244.88 99.52 244.41 C 67.11 166.05 34.72 87.67 2.56 9.20 C 2.46 7.56 2.43 5.91 2.37 4.26 Z" />
<path fill="#1ab7ea" opacity="1.00" d=" M 308.47 4.53 C 329.22 4.07 350.00 4.42 370.76 4.36 C 371.01 7.90 371.20 11.45 371.17 15.00 C 371.17 85.00 371.18 155.00 371.17 225.00 C 371.07 231.62 371.53 238.26 370.96 244.87 C 358.20 245.91 345.35 244.39 332.60 245.72 C 320.78 245.41 308.55 236.64 307.59 224.27 C 307.81 222.19 308.08 220.12 308.14 218.03 C 308.07 153.69 308.13 89.34 308.11 25.00 C 308.33 18.18 307.80 11.33 308.47 4.53 Z" />
</g>
<g id="#d0ffffff">
<path fill="#d0ffff" opacity="1.00" d=" M 227.93 2.94 C 232.79 1.24 237.97 2.01 242.99 1.97 C 252.01 1.95 261.02 1.96 270.03 1.83 C 272.26 1.76 274.50 2.01 276.60 2.81 C 260.38 3.10 244.15 2.89 227.93 2.94 Z" />
</g>
<g id="#39a5c2ff">
<path fill="#39a5c2" opacity="1.00" d=" M 0.00 2.81 C 15.66 2.72 31.33 2.82 46.99 2.75 C 52.13 2.70 57.29 3.19 62.23 4.62 C 46.50 3.92 30.74 4.43 15.00 4.18 C 10.79 4.06 6.58 4.08 2.37 4.26 C 2.43 5.91 2.46 7.56 2.56 9.20 C 1.75 7.60 0.84 6.05 0.00 4.47 L 0.00 2.81 Z" />
</g>
<g id="#37a1bdff">
<path fill="#37a1bd" opacity="1.00" d=" M 225.61 3.55 C 226.19 3.39 227.35 3.09 227.93 2.94 C 244.15 2.89 260.38 3.10 276.60 2.81 C 276.41 3.28 276.04 4.21 275.85 4.68 C 259.14 3.19 242.30 5.24 225.61 3.55 Z" />
</g>
<g id="#26a4c9ff">
<path fill="#26a4c9" opacity="1.00" d=" M 306.77 2.92 C 328.59 2.74 350.43 2.71 372.26 2.93 C 372.58 81.61 372.26 160.31 372.42 239.00 C 372.42 241.35 372.35 243.71 372.25 246.07 C 359.04 245.98 345.78 246.61 332.60 245.72 C 345.35 244.39 358.20 245.91 370.96 244.87 C 371.53 238.26 371.07 231.62 371.17 225.00 C 371.18 155.00 371.17 85.00 371.17 15.00 C 371.20 11.45 371.01 7.90 370.76 4.36 C 350.00 4.42 329.22 4.07 308.47 4.53 C 307.80 11.33 308.33 18.18 308.11 25.00 C 308.13 89.34 308.07 153.69 308.14 218.03 C 308.08 220.12 307.81 222.19 307.59 224.27 C 306.75 221.93 306.56 219.45 306.62 216.99 C 306.76 145.64 306.45 74.28 306.77 2.92 Z" />
</g>
<g id="#34a0beff">
<path fill="#34a0be" opacity="1.00" d=" M 436.84 2.90 C 483.55 2.61 530.28 2.92 577.00 2.74 C 579.15 2.71 581.28 3.05 583.39 3.49 C 580.27 3.83 577.15 4.17 574.02 4.19 C 528.76 4.30 483.48 4.09 438.22 4.28 C 437.48 12.26 438.50 20.28 437.74 28.25 C 436.43 24.99 436.71 21.44 436.69 18.00 C 436.73 12.97 436.59 7.93 436.84 2.90 Z" />
</g>
<g id="#38a2bfff">
<path fill="#38a2bf" opacity="1.00" d=" M 815.55 3.50 C 817.98 2.90 820.49 2.67 823.00 2.74 C 855.70 2.97 888.40 2.49 921.09 2.99 C 921.09 11.14 921.77 19.38 920.44 27.46 C 919.20 19.84 920.69 12.10 919.61 4.47 C 913.08 3.90 906.53 4.26 900.00 4.21 C 878.66 4.19 857.33 4.22 836.00 4.19 C 829.18 4.10 822.31 4.66 815.55 3.50 Z" />
</g>
<g id="#2ba9cdff">
<path fill="#2ba9cd" opacity="1.00" d=" M 1253.98 2.97 C 1272.65 2.55 1291.33 2.90 1310.00 2.78 C 1319.80 3.04 1329.66 2.14 1339.41 3.48 C 1332.68 4.89 1325.80 4.23 1319.00 4.32 C 1297.74 4.37 1276.47 4.28 1255.21 4.35 C 1254.32 15.54 1254.90 26.78 1254.73 38.00 C 1254.73 94.67 1254.73 151.33 1254.73 208.00 C 1254.95 220.30 1254.28 232.63 1255.06 244.92 C 1265.80 246.03 1276.65 244.23 1287.37 245.67 C 1276.26 246.60 1265.07 246.03 1253.93 246.05 C 1253.70 214.70 1253.90 183.35 1253.84 152.00 C 1253.93 102.32 1253.65 52.65 1253.98 2.97 Z" />
</g>
<g id="#339fbcff">
<path fill="#339fbc" opacity="1.00" d=" M 1519.56 3.30 C 1529.34 2.28 1539.19 3.01 1549.00 2.79 C 1566.00 2.85 1583.00 2.68 1600.00 2.89 L 1600.00 4.03 C 1575.67 4.43 1551.32 3.98 1526.99 4.27 C 1524.46 4.31 1522.00 3.80 1519.56 3.30 Z" />
</g>
<g id="#26aaccff">
<path fill="#26aacc" opacity="1.00" d=" M 454.79 51.43 C 459.57 51.56 464.19 53.04 468.98 53.10 C 496.32 53.02 523.66 53.09 551.00 53.06 C 555.73 53.10 560.63 52.48 565.17 54.17 C 533.79 54.47 502.39 54.18 471.00 54.31 C 465.50 54.38 459.76 54.06 454.79 51.43 Z" />
</g>
<g id="#25abcdff">
<path fill="#25abcd" opacity="1.00" d=" M 836.72 54.10 C 839.37 53.18 842.17 52.79 844.99 52.91 C 854.32 53.17 863.66 52.98 873.00 53.08 C 878.81 53.20 884.65 52.50 890.44 53.42 C 884.04 54.74 877.48 54.05 871.00 54.22 C 859.57 54.09 848.13 54.46 836.72 54.10 Z" />
</g>
<g id="#3ba9c3ff">
<path fill="#3ba9c3" opacity="1.00" d=" M 667.84 98.99 C 667.71 94.52 667.79 90.03 668.42 85.59 C 669.65 90.64 669.21 95.86 669.24 101.00 C 669.24 116.67 669.24 132.33 669.24 148.00 C 669.18 153.15 669.67 158.39 668.38 163.44 C 667.39 157.33 667.93 151.15 667.86 145.00 C 667.82 129.66 667.88 114.33 667.84 98.99 Z" />
</g>
<g id="#37a4c3ff">
<path fill="#37a4c3" opacity="1.00" d=" M 839.63 195.05 C 852.39 194.33 865.21 194.99 878.00 194.76 C 882.75 194.84 887.61 194.30 892.23 195.68 C 881.17 196.48 870.08 196.17 859.00 196.25 C 852.53 196.16 845.96 196.62 839.63 195.05 Z" />
</g>
<g id="#2ea8cfff">
<path fill="#2ea8cf" opacity="1.00" d=" M 920.17 218.73 C 922.08 227.67 920.90 236.94 921.15 246.03 C 891.10 246.30 861.05 246.07 831.00 246.14 C 825.87 246.04 820.69 246.56 815.62 245.60 C 820.40 245.13 825.20 245.09 830.00 245.18 C 853.66 245.17 877.33 245.19 901.00 245.16 C 906.93 245.14 912.90 245.61 918.82 244.80 C 920.75 236.22 918.82 227.38 920.17 218.73 Z" />
</g>
<g id="#29a7ceff">
<path fill="#29a7ce" opacity="1.00" d=" M 171.54 244.72 C 172.61 243.17 173.92 241.82 175.35 240.61 C 174.69 242.31 174.12 244.04 173.57 245.78 C 166.40 246.45 159.19 246.00 152.00 246.14 C 134.77 245.97 117.52 246.48 100.30 245.88 C 100.11 245.51 99.72 244.78 99.52 244.41 C 103.33 244.88 107.16 245.18 111.00 245.16 C 126.00 245.10 141.00 245.17 156.00 245.13 C 161.18 245.08 166.39 245.40 171.54 244.72 Z" />
<path fill="#29a7ce" opacity="1.00" d=" M 1386.66 240.12 C 1388.62 242.31 1390.55 245.42 1393.94 245.08 C 1405.62 245.29 1417.31 245.05 1429.00 245.14 C 1438.49 244.97 1448.02 245.62 1457.49 244.59 C 1458.43 244.42 1459.06 244.85 1459.36 245.86 C 1452.25 246.44 1445.11 246.03 1438.00 246.14 C 1421.64 246.08 1405.28 246.26 1388.92 246.05 C 1388.15 244.08 1387.42 242.09 1386.66 240.12 Z" />
</g>
<g id="#2ba9d1ff">
<path fill="#2ba9d1" opacity="1.00" d=" M 1555.74 244.65 C 1560.17 244.06 1564.57 245.17 1569.01 245.13 C 1579.34 245.07 1589.67 245.13 1600.00 245.08 L 1600.00 246.11 C 1589.00 246.17 1578.00 246.14 1567.00 246.15 C 1563.18 246.21 1559.40 245.66 1555.74 244.65 Z" />
</g>
<g id="#27a7cfff">
<path fill="#27a7cf" opacity="1.00" d=" M 500.63 245.51 C 507.06 244.64 513.54 245.20 520.00 245.11 C 539.35 245.03 558.70 245.23 578.05 244.99 C 580.17 245.02 582.29 245.28 584.41 245.52 C 582.61 245.84 580.80 246.11 578.98 246.15 C 554.99 246.14 531.00 246.10 507.01 246.17 C 504.87 246.15 502.74 245.87 500.63 245.51 Z" />
</g>
</svg>
